<mxfile host="app.diagrams.net" agent="Mozilla/5.0 (Windows NT 10.0; Win64; x64; rv:133.0) Gecko/20100101 Firefox/133.0" version="25.0.0">
  <diagram name="Page-1" id="32nfzCK2Py7yoxLRSfLo">
    <mxGraphModel dx="1182" dy="773" grid="1" gridSize="10" guides="1" tooltips="1" connect="1" arrows="1" fold="1" page="1" pageScale="1" pageWidth="850" pageHeight="1100" math="0" shadow="0">
      <root>
        <mxCell id="0" />
        <mxCell id="1" parent="0" />
        <mxCell id="DOjySaJ2YVil7K1AIYDm-1" value="dosyaya yaz?" style="strokeWidth=2;html=1;shape=mxgraph.flowchart.decision;whiteSpace=wrap;" vertex="1" parent="1">
          <mxGeometry x="389" y="760" width="100" height="100" as="geometry" />
        </mxCell>
        <mxCell id="DOjySaJ2YVil7K1AIYDm-4" style="edgeStyle=orthogonalEdgeStyle;rounded=0;orthogonalLoop=1;jettySize=auto;html=1;exitX=0.5;exitY=0;exitDx=0;exitDy=0;exitPerimeter=0;curved=1;entryX=0.5;entryY=1;entryDx=0;entryDy=0;entryPerimeter=0;" edge="1" parent="1" source="DOjySaJ2YVil7K1AIYDm-1" target="DOjySaJ2YVil7K1AIYDm-5">
          <mxGeometry relative="1" as="geometry">
            <mxPoint x="239" y="700" as="targetPoint" />
          </mxGeometry>
        </mxCell>
        <mxCell id="DOjySaJ2YVil7K1AIYDm-8" value="evet" style="edgeLabel;html=1;align=center;verticalAlign=middle;resizable=0;points=[];fontFamily=Helvetica;fontSize=11;fontColor=default;labelBackgroundColor=default;" vertex="1" connectable="0" parent="DOjySaJ2YVil7K1AIYDm-4">
          <mxGeometry x="0.1347" y="3" relative="1" as="geometry">
            <mxPoint as="offset" />
          </mxGeometry>
        </mxCell>
        <mxCell id="DOjySaJ2YVil7K1AIYDm-10" style="edgeStyle=orthogonalEdgeStyle;shape=connector;curved=1;rounded=0;orthogonalLoop=1;jettySize=auto;html=1;exitX=0;exitY=0.5;exitDx=0;exitDy=0;exitPerimeter=0;strokeColor=default;align=center;verticalAlign=middle;fontFamily=Helvetica;fontSize=11;fontColor=default;labelBackgroundColor=default;endArrow=classic;entryX=0.5;entryY=1;entryDx=0;entryDy=0;" edge="1" parent="1" source="DOjySaJ2YVil7K1AIYDm-5" target="DOjySaJ2YVil7K1AIYDm-21">
          <mxGeometry relative="1" as="geometry">
            <mxPoint x="109" y="440" as="targetPoint" />
          </mxGeometry>
        </mxCell>
        <mxCell id="DOjySaJ2YVil7K1AIYDm-27" value="0 ya da 1" style="edgeLabel;html=1;align=center;verticalAlign=middle;resizable=0;points=[];fontFamily=Helvetica;fontSize=11;fontColor=default;labelBackgroundColor=default;" vertex="1" connectable="0" parent="DOjySaJ2YVil7K1AIYDm-10">
          <mxGeometry x="0.2744" y="-4" relative="1" as="geometry">
            <mxPoint as="offset" />
          </mxGeometry>
        </mxCell>
        <mxCell id="DOjySaJ2YVil7K1AIYDm-14" value="" style="edgeStyle=orthogonalEdgeStyle;shape=connector;curved=1;rounded=0;orthogonalLoop=1;jettySize=auto;html=1;exitX=1;exitY=0.5;exitDx=0;exitDy=0;exitPerimeter=0;strokeColor=default;align=center;verticalAlign=middle;fontFamily=Helvetica;fontSize=11;fontColor=default;labelBackgroundColor=default;endArrow=classic;entryX=0.5;entryY=1;entryDx=0;entryDy=0;" edge="1" parent="1" source="DOjySaJ2YVil7K1AIYDm-5" target="DOjySaJ2YVil7K1AIYDm-22">
          <mxGeometry relative="1" as="geometry">
            <mxPoint x="369" y="440" as="targetPoint" />
          </mxGeometry>
        </mxCell>
        <mxCell id="DOjySaJ2YVil7K1AIYDm-63" value="2" style="edgeLabel;html=1;align=center;verticalAlign=middle;resizable=0;points=[];fontFamily=Helvetica;fontSize=11;fontColor=default;labelBackgroundColor=default;" vertex="1" connectable="0" parent="DOjySaJ2YVil7K1AIYDm-14">
          <mxGeometry x="0.2368" y="8" relative="1" as="geometry">
            <mxPoint as="offset" />
          </mxGeometry>
        </mxCell>
        <mxCell id="DOjySaJ2YVil7K1AIYDm-5" value="&lt;div&gt;&lt;font style=&quot;font-size: 11px;&quot;&gt;0. kalanlar&lt;/font&gt;&lt;/div&gt;&lt;div&gt;&lt;font style=&quot;font-size: 11px;&quot;&gt;1. gecenler&lt;/font&gt;&lt;/div&gt;&lt;div&gt;&lt;font style=&quot;font-size: 11px;&quot;&gt;2. tum liste&lt;br&gt;&lt;/font&gt;&lt;/div&gt;" style="strokeWidth=2;html=1;shape=mxgraph.flowchart.decision;whiteSpace=wrap;" vertex="1" parent="1">
          <mxGeometry x="150" y="540" width="100" height="100" as="geometry" />
        </mxCell>
        <mxCell id="DOjySaJ2YVil7K1AIYDm-23" style="edgeStyle=orthogonalEdgeStyle;shape=connector;curved=1;rounded=0;orthogonalLoop=1;jettySize=auto;html=1;exitX=0;exitY=0.5;exitDx=0;exitDy=0;exitPerimeter=0;strokeColor=default;align=center;verticalAlign=middle;fontFamily=Helvetica;fontSize=11;fontColor=default;labelBackgroundColor=default;endArrow=classic;entryX=0.5;entryY=1;entryDx=0;entryDy=0;" edge="1" parent="1" source="DOjySaJ2YVil7K1AIYDm-6" target="DOjySaJ2YVil7K1AIYDm-47">
          <mxGeometry relative="1" as="geometry">
            <mxPoint x="549" y="440" as="targetPoint" />
          </mxGeometry>
        </mxCell>
        <mxCell id="DOjySaJ2YVil7K1AIYDm-61" value="0 ya da 1" style="edgeLabel;html=1;align=center;verticalAlign=middle;resizable=0;points=[];fontFamily=Helvetica;fontSize=11;fontColor=default;labelBackgroundColor=default;" vertex="1" connectable="0" parent="DOjySaJ2YVil7K1AIYDm-23">
          <mxGeometry x="0.3008" y="1" relative="1" as="geometry">
            <mxPoint as="offset" />
          </mxGeometry>
        </mxCell>
        <mxCell id="DOjySaJ2YVil7K1AIYDm-24" style="edgeStyle=orthogonalEdgeStyle;shape=connector;curved=1;rounded=0;orthogonalLoop=1;jettySize=auto;html=1;exitX=1;exitY=0.5;exitDx=0;exitDy=0;exitPerimeter=0;strokeColor=default;align=center;verticalAlign=middle;fontFamily=Helvetica;fontSize=11;fontColor=default;labelBackgroundColor=default;endArrow=classic;entryX=0.5;entryY=1;entryDx=0;entryDy=0;" edge="1" parent="1" source="DOjySaJ2YVil7K1AIYDm-6" target="DOjySaJ2YVil7K1AIYDm-48">
          <mxGeometry relative="1" as="geometry">
            <mxPoint x="789" y="440" as="targetPoint" />
          </mxGeometry>
        </mxCell>
        <mxCell id="DOjySaJ2YVil7K1AIYDm-62" value="2" style="edgeLabel;html=1;align=center;verticalAlign=middle;resizable=0;points=[];fontFamily=Helvetica;fontSize=11;fontColor=default;labelBackgroundColor=default;" vertex="1" connectable="0" parent="DOjySaJ2YVil7K1AIYDm-24">
          <mxGeometry x="0.2379" y="3" relative="1" as="geometry">
            <mxPoint as="offset" />
          </mxGeometry>
        </mxCell>
        <mxCell id="DOjySaJ2YVil7K1AIYDm-6" value="&lt;div&gt;0. kalanlar&lt;/div&gt;&lt;div&gt;1. gecenler&lt;/div&gt;&lt;div&gt;2. tum liste&lt;br&gt;&lt;/div&gt;" style="strokeWidth=2;html=1;shape=mxgraph.flowchart.decision;whiteSpace=wrap;fontFamily=Helvetica;fontSize=11;fontColor=default;labelBackgroundColor=default;" vertex="1" parent="1">
          <mxGeometry x="619" y="540" width="100" height="100" as="geometry" />
        </mxCell>
        <mxCell id="DOjySaJ2YVil7K1AIYDm-7" style="edgeStyle=orthogonalEdgeStyle;shape=connector;curved=1;rounded=0;orthogonalLoop=1;jettySize=auto;html=1;exitX=0.5;exitY=0;exitDx=0;exitDy=0;exitPerimeter=0;entryX=0.5;entryY=1;entryDx=0;entryDy=0;entryPerimeter=0;strokeColor=default;align=center;verticalAlign=middle;fontFamily=Helvetica;fontSize=11;fontColor=default;labelBackgroundColor=default;endArrow=classic;" edge="1" parent="1" source="DOjySaJ2YVil7K1AIYDm-1" target="DOjySaJ2YVil7K1AIYDm-6">
          <mxGeometry relative="1" as="geometry" />
        </mxCell>
        <mxCell id="DOjySaJ2YVil7K1AIYDm-9" value="&lt;div&gt;hayır&lt;/div&gt;" style="edgeLabel;html=1;align=center;verticalAlign=middle;resizable=0;points=[];fontFamily=Helvetica;fontSize=11;fontColor=default;labelBackgroundColor=default;" vertex="1" connectable="0" parent="DOjySaJ2YVil7K1AIYDm-7">
          <mxGeometry x="0.0902" y="1" relative="1" as="geometry">
            <mxPoint as="offset" />
          </mxGeometry>
        </mxCell>
        <mxCell id="DOjySaJ2YVil7K1AIYDm-21" value="print( sayi, dosya yolu)" style="rounded=1;whiteSpace=wrap;html=1;absoluteArcSize=1;arcSize=14;strokeWidth=2;fontFamily=Helvetica;fontSize=11;fontColor=default;labelBackgroundColor=default;" vertex="1" parent="1">
          <mxGeometry x="20" y="390" width="130" height="50" as="geometry" />
        </mxCell>
        <mxCell id="DOjySaJ2YVil7K1AIYDm-22" value="print(boş,dosya yolu)" style="rounded=1;whiteSpace=wrap;html=1;absoluteArcSize=1;arcSize=14;strokeWidth=2;fontFamily=Helvetica;fontSize=11;fontColor=default;labelBackgroundColor=default;" vertex="1" parent="1">
          <mxGeometry x="256" y="390" width="130" height="50" as="geometry" />
        </mxCell>
        <mxCell id="DOjySaJ2YVil7K1AIYDm-37" style="edgeStyle=orthogonalEdgeStyle;shape=connector;curved=1;rounded=0;orthogonalLoop=1;jettySize=auto;html=1;exitX=0;exitY=0.5;exitDx=0;exitDy=0;exitPerimeter=0;entryX=0.25;entryY=1;entryDx=0;entryDy=0;strokeColor=default;align=center;verticalAlign=middle;fontFamily=Helvetica;fontSize=11;fontColor=default;labelBackgroundColor=default;endArrow=classic;" edge="1" parent="1" source="DOjySaJ2YVil7K1AIYDm-30" target="DOjySaJ2YVil7K1AIYDm-34">
          <mxGeometry relative="1" as="geometry" />
        </mxCell>
        <mxCell id="DOjySaJ2YVil7K1AIYDm-41" style="edgeStyle=orthogonalEdgeStyle;shape=connector;curved=1;rounded=0;orthogonalLoop=1;jettySize=auto;html=1;exitX=0.5;exitY=0;exitDx=0;exitDy=0;exitPerimeter=0;entryX=0.389;entryY=0.94;entryDx=0;entryDy=0;strokeColor=default;align=center;verticalAlign=middle;fontFamily=Helvetica;fontSize=11;fontColor=default;labelBackgroundColor=default;endArrow=classic;entryPerimeter=0;" edge="1" parent="1" source="DOjySaJ2YVil7K1AIYDm-30" target="DOjySaJ2YVil7K1AIYDm-33">
          <mxGeometry relative="1" as="geometry" />
        </mxCell>
        <mxCell id="DOjySaJ2YVil7K1AIYDm-44" style="edgeStyle=orthogonalEdgeStyle;shape=connector;curved=1;rounded=0;orthogonalLoop=1;jettySize=auto;html=1;exitX=1;exitY=0.5;exitDx=0;exitDy=0;exitPerimeter=0;strokeColor=default;align=center;verticalAlign=middle;fontFamily=Helvetica;fontSize=11;fontColor=default;labelBackgroundColor=default;endArrow=classic;entryX=0.5;entryY=1;entryDx=0;entryDy=0;" edge="1" parent="1" source="DOjySaJ2YVil7K1AIYDm-30" target="DOjySaJ2YVil7K1AIYDm-45">
          <mxGeometry relative="1" as="geometry">
            <mxPoint x="310" y="200" as="targetPoint" />
          </mxGeometry>
        </mxCell>
        <mxCell id="DOjySaJ2YVil7K1AIYDm-30" value="0, 1, boş" style="strokeWidth=2;html=1;shape=mxgraph.flowchart.decision;whiteSpace=wrap;fontFamily=Helvetica;fontSize=11;fontColor=default;labelBackgroundColor=default;" vertex="1" parent="1">
          <mxGeometry x="160" y="240" width="80" height="80" as="geometry" />
        </mxCell>
        <mxCell id="DOjySaJ2YVil7K1AIYDm-33" value="geçenler dosyaya yazılır" style="shape=parallelogram;html=1;strokeWidth=2;perimeter=parallelogramPerimeter;whiteSpace=wrap;rounded=1;arcSize=12;size=0.23;fontFamily=Helvetica;fontSize=11;fontColor=default;labelBackgroundColor=default;" vertex="1" parent="1">
          <mxGeometry x="166" y="150" width="90" height="50" as="geometry" />
        </mxCell>
        <mxCell id="DOjySaJ2YVil7K1AIYDm-34" value="kalanlar dosyaya yazılır" style="shape=parallelogram;html=1;strokeWidth=2;perimeter=parallelogramPerimeter;whiteSpace=wrap;rounded=1;arcSize=12;size=0.23;fontFamily=Helvetica;fontSize=11;fontColor=default;labelBackgroundColor=default;" vertex="1" parent="1">
          <mxGeometry x="70" y="150" width="90" height="50" as="geometry" />
        </mxCell>
        <mxCell id="DOjySaJ2YVil7K1AIYDm-42" style="edgeStyle=orthogonalEdgeStyle;shape=connector;curved=1;rounded=0;orthogonalLoop=1;jettySize=auto;html=1;exitX=0.5;exitY=0;exitDx=0;exitDy=0;entryX=0.5;entryY=1;entryDx=0;entryDy=0;entryPerimeter=0;strokeColor=default;align=center;verticalAlign=middle;fontFamily=Helvetica;fontSize=11;fontColor=default;labelBackgroundColor=default;endArrow=classic;" edge="1" parent="1" source="DOjySaJ2YVil7K1AIYDm-21" target="DOjySaJ2YVil7K1AIYDm-30">
          <mxGeometry relative="1" as="geometry" />
        </mxCell>
        <mxCell id="DOjySaJ2YVil7K1AIYDm-43" style="edgeStyle=orthogonalEdgeStyle;shape=connector;curved=1;rounded=0;orthogonalLoop=1;jettySize=auto;html=1;exitX=0.5;exitY=0;exitDx=0;exitDy=0;entryX=0.5;entryY=1;entryDx=0;entryDy=0;entryPerimeter=0;strokeColor=default;align=center;verticalAlign=middle;fontFamily=Helvetica;fontSize=11;fontColor=default;labelBackgroundColor=default;endArrow=classic;" edge="1" parent="1" source="DOjySaJ2YVil7K1AIYDm-22" target="DOjySaJ2YVil7K1AIYDm-30">
          <mxGeometry relative="1" as="geometry" />
        </mxCell>
        <mxCell id="DOjySaJ2YVil7K1AIYDm-45" value="tüm sonuçlar dosyaya yazılır" style="shape=parallelogram;html=1;strokeWidth=2;perimeter=parallelogramPerimeter;whiteSpace=wrap;rounded=1;arcSize=12;size=0.23;fontFamily=Helvetica;fontSize=11;fontColor=default;labelBackgroundColor=default;" vertex="1" parent="1">
          <mxGeometry x="270" y="150" width="90" height="50" as="geometry" />
        </mxCell>
        <mxCell id="DOjySaJ2YVil7K1AIYDm-47" value="print(sayi, boş)" style="rounded=1;whiteSpace=wrap;html=1;absoluteArcSize=1;arcSize=14;strokeWidth=2;fontFamily=Helvetica;fontSize=11;fontColor=default;labelBackgroundColor=default;" vertex="1" parent="1">
          <mxGeometry x="508" y="390" width="92" height="50" as="geometry" />
        </mxCell>
        <mxCell id="DOjySaJ2YVil7K1AIYDm-51" style="edgeStyle=orthogonalEdgeStyle;shape=connector;curved=1;rounded=0;orthogonalLoop=1;jettySize=auto;html=1;exitX=0.5;exitY=0;exitDx=0;exitDy=0;entryX=0.5;entryY=1;entryDx=0;entryDy=0;strokeColor=default;align=center;verticalAlign=middle;fontFamily=Helvetica;fontSize=11;fontColor=default;labelBackgroundColor=default;endArrow=classic;" edge="1" parent="1" source="DOjySaJ2YVil7K1AIYDm-48" target="DOjySaJ2YVil7K1AIYDm-49">
          <mxGeometry relative="1" as="geometry" />
        </mxCell>
        <mxCell id="DOjySaJ2YVil7K1AIYDm-48" value="print()" style="rounded=1;whiteSpace=wrap;html=1;absoluteArcSize=1;arcSize=14;strokeWidth=2;fontFamily=Helvetica;fontSize=11;fontColor=default;labelBackgroundColor=default;" vertex="1" parent="1">
          <mxGeometry x="730" y="390" width="90" height="50" as="geometry" />
        </mxCell>
        <mxCell id="DOjySaJ2YVil7K1AIYDm-49" value="tüm sonuçlar ekrana yazılır" style="shape=parallelogram;html=1;strokeWidth=2;perimeter=parallelogramPerimeter;whiteSpace=wrap;rounded=1;arcSize=12;size=0.23;fontFamily=Helvetica;fontSize=11;fontColor=default;labelBackgroundColor=default;" vertex="1" parent="1">
          <mxGeometry x="730" y="150" width="90" height="50" as="geometry" />
        </mxCell>
        <mxCell id="DOjySaJ2YVil7K1AIYDm-57" style="edgeStyle=orthogonalEdgeStyle;shape=connector;curved=1;rounded=0;orthogonalLoop=1;jettySize=auto;html=1;exitX=0;exitY=0.5;exitDx=0;exitDy=0;exitPerimeter=0;entryX=0.5;entryY=1;entryDx=0;entryDy=0;strokeColor=default;align=center;verticalAlign=middle;fontFamily=Helvetica;fontSize=11;fontColor=default;labelBackgroundColor=default;endArrow=classic;" edge="1" parent="1" source="DOjySaJ2YVil7K1AIYDm-52" target="DOjySaJ2YVil7K1AIYDm-56">
          <mxGeometry relative="1" as="geometry" />
        </mxCell>
        <mxCell id="DOjySaJ2YVil7K1AIYDm-58" style="edgeStyle=orthogonalEdgeStyle;shape=connector;curved=1;rounded=0;orthogonalLoop=1;jettySize=auto;html=1;exitX=1;exitY=0.5;exitDx=0;exitDy=0;exitPerimeter=0;strokeColor=default;align=center;verticalAlign=middle;fontFamily=Helvetica;fontSize=11;fontColor=default;labelBackgroundColor=default;endArrow=classic;entryX=0.5;entryY=1;entryDx=0;entryDy=0;" edge="1" parent="1" source="DOjySaJ2YVil7K1AIYDm-52" target="DOjySaJ2YVil7K1AIYDm-59">
          <mxGeometry relative="1" as="geometry">
            <mxPoint x="640" y="200" as="targetPoint" />
          </mxGeometry>
        </mxCell>
        <mxCell id="DOjySaJ2YVil7K1AIYDm-52" value="0, 1" style="strokeWidth=2;html=1;shape=mxgraph.flowchart.decision;whiteSpace=wrap;fontFamily=Helvetica;fontSize=11;fontColor=default;labelBackgroundColor=default;" vertex="1" parent="1">
          <mxGeometry x="514" y="240" width="80" height="80" as="geometry" />
        </mxCell>
        <mxCell id="DOjySaJ2YVil7K1AIYDm-53" style="edgeStyle=orthogonalEdgeStyle;shape=connector;curved=1;rounded=0;orthogonalLoop=1;jettySize=auto;html=1;exitX=0.5;exitY=0;exitDx=0;exitDy=0;entryX=0.5;entryY=1;entryDx=0;entryDy=0;entryPerimeter=0;strokeColor=default;align=center;verticalAlign=middle;fontFamily=Helvetica;fontSize=11;fontColor=default;labelBackgroundColor=default;endArrow=classic;" edge="1" parent="1" source="DOjySaJ2YVil7K1AIYDm-47" target="DOjySaJ2YVil7K1AIYDm-52">
          <mxGeometry relative="1" as="geometry" />
        </mxCell>
        <mxCell id="DOjySaJ2YVil7K1AIYDm-56" value="kalanlar ekrana yazılır" style="shape=parallelogram;html=1;strokeWidth=2;perimeter=parallelogramPerimeter;whiteSpace=wrap;rounded=1;arcSize=12;size=0.23;fontFamily=Helvetica;fontSize=11;fontColor=default;labelBackgroundColor=default;" vertex="1" parent="1">
          <mxGeometry x="450" y="150" width="90" height="50" as="geometry" />
        </mxCell>
        <mxCell id="DOjySaJ2YVil7K1AIYDm-59" value="geçenler ekrana yazılır" style="shape=parallelogram;html=1;strokeWidth=2;perimeter=parallelogramPerimeter;whiteSpace=wrap;rounded=1;arcSize=12;size=0.23;fontFamily=Helvetica;fontSize=11;fontColor=default;labelBackgroundColor=default;" vertex="1" parent="1">
          <mxGeometry x="580" y="150" width="90" height="50" as="geometry" />
        </mxCell>
      </root>
    </mxGraphModel>
  </diagram>
</mxfile>
